<?xml version="1.0" standalone="no"?>
<!DOCTYPE svg PUBLIC "-//W3C//DTD SVG 1.0//EN" "http://www.w3.org/TR/2001/REC-SVG-20010904/DTD/svg10.dtd">
<svg xmlns="http://www.w3.org/2000/svg" xmlns:xlink="http://www.w3.org/1999/xlink" id="body_1" width="50" height="50">

<g transform="matrix(1 0 0 1 0 0)">
	<g>
        <path d="M0 0L24 0L24 24L0 24L0 0z" stroke="none" fill="none" />
        <path d="M12 2C 6.475 2 2 6.475 2 12C 1.997674 16.305407 4.7529016 20.128397 8.837999 21.487999C 9.337999 21.574999 9.525 21.275 9.525 21.012C 9.525 20.775 9.512 19.987999 9.512 19.15C 7 19.612999 6.3500004 18.538 6.15 17.975C 6.037 17.687 5.55 16.800001 5.125 16.562C 4.775 16.375 4.275 15.912001 5.112 15.900001C 5.9 15.887001 6.462 16.625 6.65 16.925001C 7.55 18.437 8.988 18.012001 9.562 17.750002C 9.650001 17.100002 9.912001 16.663002 10.200001 16.413002C 7.975001 16.163002 5.6500006 15.300002 5.6500006 11.475002C 5.6500006 10.387002 6.0370007 9.488003 6.6750007 8.787003C 6.575001 8.537003 6.225001 7.5120025 6.7750006 6.1370025C 6.7750006 6.1370025 7.6120005 5.8750024 9.525001 7.1630025C 10.3390665 6.9370613 11.180163 6.823346 12.025001 6.8250027C 12.875001 6.8250027 13.725 6.9370027 14.525001 7.1620026C 16.437 5.8620024 17.275002 6.1380024 17.275002 6.1380024C 17.825 7.5130024 17.475002 8.538002 17.375002 8.788002C 18.012001 9.488002 18.400002 10.375002 18.400002 11.475002C 18.400002 15.313003 16.063002 16.163002 13.838001 16.413002C 14.200001 16.725002 14.513001 17.325003 14.513001 18.263002C 14.513001 19.600002 14.500002 20.675003 14.500002 21.013002C 14.500002 21.275002 14.688002 21.587002 15.188002 21.487003C 19.258238 20.112774 21.998838 16.295965 22 12C 22 6.475 17.525 2 12 2z" stroke="none" fill="#000000" fill-rule="nonzero" />
	</g>
</g>
</svg>
